<svg xmlns="http://www.w3.org/2000/svg" version="1.1" xmlns:xlink="http://www.w3.org/1999/xlink" xmlns:svgjs="http://svgjs.dev/svgjs" width="1500" height="1500" viewBox="0 0 1500 1500"><rect width="1500" height="1500" fill="#000000"></rect><g transform="matrix(0.6666666666666666,0,0,0.6666666666666666,248.44236760124625,189.33333333333348)"><svg viewBox="0 0 321 360" data-background-color="#14293a" preserveAspectRatio="xMidYMid meet" height="1682" width="1500" xmlns="http://www.w3.org/2000/svg" xmlns:xlink="http://www.w3.org/1999/xlink"><g id="tight-bounds" transform="matrix(1,0,0,1,0.5,0)"><svg viewBox="0 0 320 360" height="360" width="320"><g><svg></svg></g><g><svg viewBox="0 0 320 360" height="360" width="320"><g><path d="M20.961 227.22l3.726 4.658-1.863-6.056c-0.466-2.795-3.726 0.466-1.863 1.398M25.153 224.425c1.397 2.329 2.795 4.658 2.795 6.987 0 3.261 2.795 4.658 5.123 5.589-3.261-3.726-5.124-13.974-7.918-12.576M204.017 26.929c7.918 0 15.371-0.932 23.756 0.931 20.495 5.124 37.729 15.371 49.374 29.811l32.606 52.169c1.397 13.042 4.192 27.482 3.726 43.319 3.261 0 2.795-4.658 6.521-5.59-3.726 9.316-5.59 20.961-6.521 34.469-2.329-7.453 0-18.632 0.466-24.687-3.261 5.124-5.124 1.397-5.124-0.932 0.466-3.726-1.397-3.261-2.795-4.658-5.124-4.658-8.384-9.782-12.11-17.7 2.329-6.055 2.795-14.905-4.658-19.563-2.329-1.397-5.124-3.726-6.521-7.453-1.863-5.124-5.124-11.179-4.193-19.097 0.466-2.329-6.987 5.124-11.179 1.863-18.166-12.576-36.332-27.016-58.224-39.127-11.645 0-20.029-4.192-24.221-9.316-3.726-4.658-0.932-10.713 4.658-11.179 3.261 0 6.987-0.932 9.782 0.932 0.466-1.863 2.329-4.192 4.657-4.192M157.904 16.215l0.932 0.466c4.658 0.932 6.987 7.453 12.11 5.124 0 3.261 0.466 6.521-0.466 8.85-1.397 3.726-5.59 3.726-8.85 3.726-31.208-1.863-49.374 11.179-68.471 22.358-5.124 3.261-10.713 5.59-14.906 9.782-20.029 18.632-41.921 35.866-47.045 70.335l-4.192 38.195c-0.466 4.192-5.124 8.384-4.192 13.508l3.26 22.824c-3.261-3.261-5.124 0.932-4.192 2.795 0.466 1.397 2.329 6.055 5.124 1.863 3.726 6.987 7.453 20.495 12.576 26.55 15.837 18.632 36.332 35.4 53.101 52.169 4.192-0.932 7.453-0.932 8.384-3.727 1.397 2.795-1.397 5.59-3.726 6.056 7.453 4.658 15.837 8.85 27.016 9.781 14.44 0.932 27.948 3.261 40.524 6.522 6.521-1.863 13.042-2.795 20.029-3.261 2.329 0 3.726-3.726 6.521-4.658l0.466-4.658c2.795 4.192 2.329-1.397 0.466-4.192 3.261 2.795 4.192 5.124 5.589 6.987 0-1.397 3.726-6.521 3.727-0.466l0.931-6.055c1.397-0.932 1.863 5.124 3.261 0.931 1.397-4.192 4.192-0.932 6.987-2.329-0.932 1.863-0.466 5.59 2.794 3.261l3.727-3.261c2.329 5.59 6.055 3.261 7.918 2.329 20.495-13.042 40.99-28.413 60.553-43.784l-0.466 6.055 2.329-7.453c2.329 2.329 4.192 0.466 5.124-0.931 2.795-4.658 6.521-9.316 12.577-13.508-7.453 20.029-16.303 35.866-27.482 48.908l-4.658 5.59c0 3.261-0.932 7.453-4.658 7.918-1.863 0.466-5.59-0.932-8.384 1.863-1.397 1.863 3.261 5.59-0.466 2.795-3.261-2.329-6.521 0-10.248 0.932-2.795 0.932 1.863 3.726 2.795 5.589 0.932 1.863 1.863 3.726 1.398 6.056l-5.124-5.59c-6.055 3.261-9.782 9.316-14.906 13.974-2.329 1.863-1.397 5.124-1.397 7.918-3.261 0-6.987-0.932-8.85 0.932-1.397 1.863-0.932 4.658-0.932 7.453-4.658-0.466-5.124-7.453-9.315-6.056-4.192 0.932-8.85 1.397-12.577 3.727 2.795 5.59-4.658 2.329-3.726 3.26-6.987-4.192-13.042-7.453-20.495-4.658-15.837-5.124-35.4-2.795-49.84-0.931 0-2.329 0.466-4.658-0.466-5.124-0.932 2.329-3.726 1.397-3.26 1.397-8.85-6.055-17.7-9.782-27.016-14.905-8.384 0.932-16.303-3.261-18.632-5.59-6.521-6.055-13.974-2.795-20.029-4.192-13.042-3.261-17.7-16.769-19.098-26.084-0.932-4.658-4.658-6.521-6.055-6.056-6.055-19.563-15.371-37.263-22.824-55.429-1.863-4.658-1.397-9.316-1.397-14.44 2.329 0.932 4.658 0.466 4.192-2.794-2.329-15.371-7.918-27.016-13.974-38.195 3.261-15.837 3.726-34.469 11.179-48.443 6.521-12.576 18.632-19.098 27.016-29.811 2.795-3.726 2.795-8.85 5.59-12.11 9.316-9.316 18.632-19.098 28.879-27.482 4.658-3.726 10.247 0 17.234-1.397 2.329-8.384 11.645-15.837 20.495-13.508 3.726 0.932 11.179-8.85 13.508-9.782 3.726-1.397 1.863 3.726 1.863 6.987 8.85-6.987 20.961-10.713 32.14-14.906" fill="#ffffff" fill-rule="nonzero" stroke="none" stroke-width="1" stroke-linecap="butt" stroke-linejoin="miter" stroke-miterlimit="10" stroke-dasharray="" stroke-dashoffset="0" font-family="none" font-weight="none" font-size="none" text-anchor="none" style="mix-blend-mode: normal" data-fill-palette-color="tertiary"></path></g><g transform="matrix(1,0,0,1,64,163.10433456763232)"><svg viewBox="0 0 192 33.79133086473536" height="33.79133086473536" width="192"><g><svg viewBox="0 0 192 33.79133086473536" height="33.79133086473536" width="192"><g><svg viewBox="0 0 192 33.79133086473536" height="33.79133086473536" width="192"><g id="textblocktransform"><svg viewBox="0 0 192 33.79133086473536" height="33.79133086473536" width="192" id="textblock"><g><svg viewBox="0 0 192 33.79133086473536" height="33.79133086473536" width="192"><g transform="matrix(1,0,0,1,0,0)"><svg width="192" viewBox="2.85 -39.65 229.53 40.4" height="33.79133086473536" data-palette-color="#e9e4de"><path d="M26.5-27.15Q29.15-27.15 30.75-25.1 32.35-23.05 32.35-19.6L32.35-19.6 32.35 0 26.3 0 26.3-18.95Q26.3-20.85 25.8-21.68 25.3-22.5 24.35-22.5L24.35-22.5Q22.4-22.5 20.6-18.8L20.6-18.8 20.6 0 14.6 0 14.6-18.95Q14.6-22.5 12.7-22.5L12.7-22.5Q10.65-22.5 8.9-18.8L8.9-18.8 8.9 0 2.85 0 2.85-26.45 8.2-26.45 8.6-23.05Q11.2-27.15 14.85-27.15L14.85-27.15Q16.7-27.15 18.05-26 19.4-24.85 20.1-22.75L20.1-22.75Q22.75-27.15 26.5-27.15L26.5-27.15ZM56-26.45L56 0 50.65 0 50.35-3.35Q49.1-1.3 47.55-0.28 46 0.75 43.95 0.75L43.95 0.75Q41.05 0.75 39.37-1.3 37.7-3.35 37.7-6.65L37.7-6.65 37.7-26.45 43.85-26.45 43.85-7Q43.85-3.9 45.95-3.9L45.95-3.9Q47.15-3.9 48.1-4.83 49.05-5.75 49.85-7.45L49.85-7.45 49.85-26.45 56-26.45ZM69.05-27.15Q73.75-27.15 77-24.05L77-24.05 74.65-20.7Q73.25-21.7 72-22.2 70.75-22.7 69.45-22.7L69.45-22.7Q68-22.7 67.17-21.93 66.34-21.15 66.34-19.8L66.34-19.8Q66.34-18.45 67.27-17.63 68.2-16.8 71-15.7L71-15.7Q74.45-14.35 76.09-12.5 77.75-10.65 77.75-7.55L77.75-7.55Q77.75-3.7 75.05-1.48 72.34 0.75 68.2 0.75L68.2 0.75Q65.5 0.75 63.22-0.23 60.95-1.2 59.25-2.95L59.25-2.95 62.25-6.25Q65.05-3.8 67.95-3.8L67.95-3.8Q69.59-3.8 70.55-4.67 71.5-5.55 71.5-7.1L71.5-7.1Q71.5-8.25 71.09-8.97 70.7-9.7 69.7-10.33 68.7-10.95 66.7-11.7L66.7-11.7Q63.25-13.05 61.77-14.85 60.3-16.65 60.3-19.45L60.3-19.45Q60.3-22.8 62.67-24.98 65.05-27.15 69.05-27.15L69.05-27.15ZM98.49-6.4Q98.49-5.1 98.84-4.48 99.19-3.85 99.99-3.45L99.99-3.45 98.74 0.65Q96.69 0.4 95.47-0.45 94.24-1.3 93.64-3.05L93.64-3.05Q91.34 0.75 87.19 0.75L87.19 0.75Q83.89 0.75 81.94-1.48 79.99-3.7 79.99-7.4L79.99-7.4Q79.99-11.7 82.67-13.95 85.34-16.2 90.44-16.2L90.44-16.2 92.49-16.2 92.49-18.05Q92.49-20.55 91.62-21.58 90.74-22.6 88.79-22.6L88.79-22.6Q86.44-22.6 82.94-21.3L82.94-21.3 81.54-25.3Q83.54-26.2 85.69-26.68 87.84-27.15 89.79-27.15L89.79-27.15Q98.49-27.15 98.49-18.35L98.49-18.35 98.49-6.4ZM88.84-3.7Q91.24-3.7 92.49-7L92.49-7 92.49-12.55 91.04-12.55Q88.49-12.55 87.32-11.4 86.14-10.25 86.14-7.85L86.14-7.85Q86.14-5.8 86.84-4.75 87.54-3.7 88.84-3.7L88.84-3.7ZM111.64-27.15Q116.34-27.15 119.59-24.05L119.59-24.05 117.24-20.7Q115.84-21.7 114.59-22.2 113.34-22.7 112.04-22.7L112.04-22.7Q110.59-22.7 109.77-21.93 108.94-21.15 108.94-19.8L108.94-19.8Q108.94-18.45 109.87-17.63 110.79-16.8 113.59-15.7L113.59-15.7Q117.04-14.35 118.69-12.5 120.34-10.65 120.34-7.55L120.34-7.55Q120.34-3.7 117.64-1.48 114.94 0.75 110.79 0.75L110.79 0.75Q108.09 0.75 105.82-0.23 103.54-1.2 101.84-2.95L101.84-2.95 104.84-6.25Q107.64-3.8 110.54-3.8L110.54-3.8Q112.19-3.8 113.14-4.67 114.09-5.55 114.09-7.1L114.09-7.1Q114.09-8.25 113.69-8.97 113.29-9.7 112.29-10.33 111.29-10.95 109.29-11.7L109.29-11.7Q105.84-13.05 104.37-14.85 102.89-16.65 102.89-19.45L102.89-19.45Q102.89-22.8 105.27-24.98 107.64-27.15 111.64-27.15L111.64-27.15ZM136.54-27.15Q139.39-27.15 141.04-25.1 142.69-23.05 142.69-19.6L142.69-19.6 142.69 0 136.54 0 136.54-18.9Q136.54-20.8 136.01-21.63 135.49-22.45 134.49-22.45L134.49-22.45Q132.39-22.45 130.34-18.5L130.34-18.5 130.34 0 124.19 0 124.19-37 130.34-37.65 130.34-23.3Q131.59-25.25 133.06-26.2 134.54-27.15 136.54-27.15L136.54-27.15ZM148.24-26.45L154.39-26.45 154.39 0 148.24 0 148.24-26.45ZM151.29-39.65Q152.94-39.65 153.96-38.6 154.99-37.55 154.99-35.9L154.99-35.9Q154.99-34.3 153.96-33.25 152.94-32.2 151.29-32.2L151.29-32.2Q149.64-32.2 148.61-33.25 147.59-34.3 147.59-35.9L147.59-35.9Q147.59-37.55 148.61-38.6 149.64-39.65 151.29-39.65L151.29-39.65ZM172.28-13.2L159.38-13.2 159.38-18.1 172.28-18.1 172.28-13.2ZM200.93-27.15Q203.58-27.15 205.18-25.1 206.78-23.05 206.78-19.6L206.78-19.6 206.78 0 200.73 0 200.73-18.95Q200.73-20.85 200.23-21.68 199.73-22.5 198.78-22.5L198.78-22.5Q196.83-22.5 195.03-18.8L195.03-18.8 195.03 0 189.03 0 189.03-18.95Q189.03-22.5 187.13-22.5L187.13-22.5Q185.08-22.5 183.33-18.8L183.33-18.8 183.33 0 177.28 0 177.28-26.45 182.63-26.45 183.03-23.05Q185.63-27.15 189.28-27.15L189.28-27.15Q191.13-27.15 192.48-26 193.83-24.85 194.53-22.75L194.53-22.75Q197.18-27.15 200.93-27.15L200.93-27.15ZM212.28-37.05L218.43-37.7 218.43 0 212.28 0 212.28-37.05ZM225.78-26.45L231.78-26.45 224.78-14.75 232.38 0 225.78 0 218.68-14.45 225.78-26.45Z" opacity="1" transform="matrix(1,0,0,1,0,0)" fill="#ffffff" class="wordmark-text-0" data-fill-palette-color="primary" id="text-0"></path></svg></g></svg></g></svg></g></svg></g><g></g></svg></g></svg></g></svg></g><defs></defs></svg><rect width="320" height="360" fill="none" stroke="none" visibility="hidden"></rect></g></svg></g></svg>